<?xml version="1.0" standalone="no"?>
<!DOCTYPE svg PUBLIC "-//W3C//DTD SVG 20010904//EN"
 "http://www.w3.org/TR/2001/REC-SVG-20010904/DTD/svg10.dtd">
<svg version="1.0" xmlns="http://www.w3.org/2000/svg"
 width="300.000000pt" height="211.000000pt" viewBox="0 0 300.000000 211.000000"
 preserveAspectRatio="xMidYMid meet">
<metadata>
Created by potrace 1.10, written by Peter Selinger 2001-2011
</metadata>
<g transform="translate(0.000000,211.000000) scale(0.100000,-0.100000)"
fill="#000000" stroke="none">
<path d="M1385 1855 c-83 -18 -140 -45 -207 -96 -91 -69 -184 -208 -190 -282
-1 -15 -6 -27 -11 -27 -4 0 -3 -9 3 -19 5 -11 6 -21 1 -23 -4 -2 -11 -28 -14
-58 -5 -44 -4 -51 5 -35 7 11 12 27 13 35 6 52 20 119 29 145 71 184 217 305
403 337 96 16 182 1 282 -48 224 -111 332 -374 251 -610 -22 -64 -59 -128 -99
-171 -16 -18 -24 -34 -18 -36 6 -2 -11 -20 -39 -41 -27 -21 -48 -42 -47 -47 2
-4 -5 -5 -14 -2 -12 5 -14 3 -8 -7 6 -10 4 -12 -9 -7 -9 4 -15 3 -11 -2 7 -12
-76 -43 -119 -45 -19 0 -32 -4 -30 -8 2 -3 -35 -5 -83 -3 l-88 4 83 -10 c103
-13 165 -1 265 48 86 44 178 133 224 219 85 159 85 375 0 524 -39 69 -161 194
-182 186 -8 -3 -14 0 -12 7 1 7 -6 11 -15 11 -10 -1 -16 2 -13 6 5 8 -24 22
-36 17 -3 -1 -13 4 -22 11 -9 8 -22 10 -28 6 -8 -5 -9 -3 -4 6 6 10 3 12 -13
8 -12 -4 -22 -2 -22 4 0 5 -9 6 -20 3 -12 -4 -26 -3 -33 3 -18 14 -105 13
-172 -3z m606 -389 c4 -16 5 -26 2 -22 -8 8 -33 78 -32 91 0 12 17 -27 30 -69z
m13 -52 c3 -8 2 -12 -4 -9 -6 3 -10 10 -10 16 0 14 7 11 14 -7z m3 -86 c-2
-13 -4 -3 -4 22 0 25 2 35 4 23 2 -13 2 -33 0 -45z m-7 -101 c-27 -111 -70
-192 -149 -280 -19 -21 -44 -43 -55 -48 -12 -6 -2 6 22 26 38 33 59 67 30 49
-7 -4 -8 -3 -4 5 4 6 11 9 16 6 13 -8 54 51 88 126 24 53 43 121 53 188 0 3 3
0 6 -7 3 -7 -1 -36 -7 -65z"/>
<path d="M1365 1568 c-9 -13 -23 -48 -32 -78 -8 -30 -19 -59 -23 -65 -11 -16
-69 -196 -79 -246 l-8 -44 -22 48 c-33 70 -55 56 -40 -27 11 -63 36 -79 121
-80 97 -1 161 5 174 15 8 6 7 39 -3 116 -7 60 -12 127 -11 150 1 36 5 43 27
48 63 16 84 76 34 96 -16 6 -35 15 -43 20 -8 5 -22 12 -32 15 -9 3 -19 17 -22
30 -8 30 -20 30 -41 2z m45 -48 c11 0 24 -8 29 -19 6 -11 21 -18 36 -18 14 0
29 -4 33 -7 11 -12 -13 -39 -44 -49 -16 -6 -32 -16 -37 -23 -6 -10 -15 -10
-40 -2 -17 6 -36 14 -41 19 -9 8 3 63 27 118 10 26 11 26 14 4 3 -15 12 -23
23 -23z m14 -234 c4 -39 9 -94 12 -122 l6 -51 -48 -8 c-27 -5 -56 -10 -64 -12
-8 -2 -41 0 -73 3 -56 6 -60 8 -74 41 -19 47 -10 52 15 8 27 -45 39 -44 48 3
8 48 40 161 59 205 l15 35 48 -15 49 -16 7 -71z"/>
<path d="M1571 1428 c-12 -13 -33 -34 -46 -47 -31 -30 -32 -64 -3 -83 21 -14
23 -24 24 -114 l2 -99 44 -7 c83 -13 127 -9 176 16 57 29 77 63 60 101 -6 14
-15 25 -20 25 -14 0 -9 37 7 50 20 17 19 40 -2 40 -24 0 -38 -10 -52 -37 -16
-31 -14 -50 10 -74 13 -13 18 -27 14 -37 -5 -13 -12 -6 -30 29 -22 43 -91 119
-107 119 -4 0 -8 14 -8 31 0 44 -21 109 -35 109 -6 0 -21 -10 -34 -22z m43
-39 c11 -55 7 -68 -24 -84 -28 -15 -32 -14 -52 5 -20 18 -20 22 -7 46 7 14 24
30 36 35 13 5 23 13 23 19 0 23 18 8 24 -21z m73 -141 c23 -24 49 -60 58 -80
17 -42 31 -47 51 -20 18 23 17 25 -6 52 -11 13 -20 29 -20 37 0 20 19 53 30
53 5 0 1 -13 -8 -29 -16 -29 -16 -31 7 -55 21 -22 23 -29 13 -50 -21 -47 -95
-71 -186 -61 l-61 7 0 84 c0 81 1 84 25 93 43 16 55 12 97 -31z"/>
<path d="M1027 1073 c16 -44 118 -161 130 -150 3 3 -11 20 -30 37 -19 17 -50
53 -67 80 -33 52 -44 62 -33 33z"/>
<path d="M1170 901 c0 -5 7 -12 16 -15 24 -9 28 -7 14 9 -14 17 -30 20 -30 6z"/>
<path d="M1247 879 c6 -6 9 -19 6 -28 -4 -14 -3 -14 6 -1 15 21 14 27 -6 35
-14 5 -15 3 -6 -6z"/>
<path d="M1270 850 c0 -5 5 -10 10 -10 6 0 10 5 10 10 0 6 -4 10 -10 10 -5 0
-10 -4 -10 -10z"/>
<path d="M1312 834 c7 -15 14 -21 16 -15 5 16 -5 41 -17 41 -7 0 -6 -10 1 -26z"/>
<path d="M1361 823 c-7 -8 -10 -17 -6 -21 3 -3 9 -1 13 5 4 6 16 13 27 15 20
4 20 4 0 9 -12 3 -26 0 -34 -8z"/>
<path d="M963 593 c-32 -6 -73 -59 -73 -93 0 -39 36 -72 75 -68 21 2 31 9 33
23 3 19 2 19 -11 3 -33 -41 -72 -6 -61 54 9 42 31 68 60 68 17 0 23 -5 21 -17
-3 -23 17 -29 22 -7 3 16 -24 46 -38 43 -3 -1 -16 -4 -28 -6z"/>
<path d="M1120 587 c-14 -7 -33 -29 -44 -50 -15 -32 -16 -42 -6 -68 22 -53 92
-53 127 0 30 44 29 76 -2 106 -27 28 -39 30 -75 12z m59 -25 c11 -21 0 -85
-20 -108 -7 -8 -22 -14 -33 -12 -18 3 -21 10 -21 54 1 29 7 59 14 68 18 21 48
20 60 -2z"/>
<path d="M545 533 c-3 -32 -9 -68 -12 -80 -5 -22 -2 -23 46 -23 53 0 76 19 53
42 -7 7 -12 3 -17 -11 -4 -14 -15 -21 -31 -21 -20 0 -24 5 -24 28 0 34 14 59
24 43 4 -6 12 -9 17 -6 16 11 10 25 -11 25 -21 0 -24 8 -14 34 9 23 41 20 47
-5 7 -25 27 -16 27 12 0 16 -7 19 -49 19 l-49 0 -7 -57z"/>
<path d="M721 540 c-6 -28 -11 -60 -11 -70 0 -11 -7 -20 -15 -20 -8 0 -15 -4
-15 -10 0 -5 7 -10 15 -10 17 0 35 39 35 76 0 36 13 29 45 -26 16 -27 32 -50
35 -50 4 0 12 31 19 69 7 39 18 72 24 74 7 2 9 8 5 12 -17 18 -36 -7 -43 -56
l-7 -52 -30 49 c-44 71 -45 71 -57 14z"/>
<path d="M1284 528 c-4 -35 -7 -66 -6 -70 1 -5 -5 -8 -13 -8 -8 0 -15 -4 -15
-10 0 -5 7 -10 15 -10 13 0 27 36 37 95 2 14 12 5 38 -38 19 -31 37 -57 41
-57 4 0 10 27 14 60 4 33 13 67 21 75 18 18 18 25 -1 25 -8 0 -17 -12 -21 -27
-3 -16 -9 -41 -13 -57 l-7 -29 -34 57 c-19 31 -37 56 -41 56 -4 0 -11 -28 -15
-62z"/>
<path d="M1453 575 c-8 -24 7 -32 21 -12 11 14 36 24 36 15 0 -2 -6 -36 -14
-75 -13 -68 -12 -73 3 -73 14 0 19 14 27 72 5 41 14 73 22 76 6 2 12 -4 12
-13 0 -21 24 -14 28 8 3 15 -6 17 -63 17 -50 0 -67 -4 -72 -15z"/>
<path d="M1660 518 c-7 -40 -14 -76 -17 -80 -2 -5 4 -8 14 -8 19 0 25 28 27
111 1 33 3 36 28 35 15 -1 30 -5 34 -9 11 -11 -5 -37 -28 -46 -20 -8 -21 -10
-5 -16 9 -4 17 -15 17 -25 0 -25 10 -50 21 -50 5 0 9 16 9 35 0 19 -4 35 -10
35 -5 0 -10 5 -10 10 0 6 6 10 14 10 20 0 30 38 16 55 -8 9 -30 15 -55 15
l-43 0 -12 -72z"/>
<path d="M1847 522 c-40 -71 -44 -85 -29 -90 6 -2 12 7 14 19 2 15 12 25 29
30 24 6 28 3 33 -22 3 -18 12 -29 22 -29 11 0 14 5 9 18 -4 9 -12 45 -18 80
-6 34 -14 62 -17 62 -3 0 -22 -30 -43 -68z m36 -24 c-5 -9 -33 -11 -33 -2 0 3
5 15 12 27 11 21 11 21 18 2 4 -11 6 -23 3 -27z"/>
<path d="M2003 583 c3 -4 -1 -41 -8 -80 -11 -65 -10 -73 4 -73 10 0 16 9 17
23 1 30 15 110 20 119 7 10 26 10 43 -1 18 -11 -3 -51 -27 -51 -16 -1 -16 -2
0 -13 9 -7 18 -26 20 -42 2 -17 10 -31 19 -33 12 -2 15 4 11 30 -3 18 -10 36
-15 40 -7 4 -2 14 14 27 37 31 17 55 -50 59 -29 2 -51 -1 -48 -5z"/>
<path d="M2153 575 c-9 -24 7 -32 22 -11 25 33 33 9 20 -64 -11 -63 -10 -70 4
-70 12 0 17 12 19 51 2 28 7 61 12 75 11 27 30 32 30 8 0 -20 24 -13 28 9 3
15 -6 17 -63 17 -50 0 -67 -4 -72 -15z"/>
<path d="M2364 582 c2 -4 -1 -40 -8 -80 l-12 -72 47 0 c50 0 82 21 62 41 -8 8
-14 5 -22 -10 -7 -12 -21 -21 -31 -21 -16 0 -20 7 -20 36 0 31 3 35 20 29 14
-5 20 -2 20 9 0 9 -7 16 -16 16 -10 0 -14 7 -12 22 4 31 36 36 46 8 7 -19 10
-20 21 -6 20 24 4 36 -50 36 -28 0 -48 -3 -45 -8z"/>
</g>
</svg>
